<svg width="25" height="24" viewBox="0 0 25 24" fill="none" xmlns="http://www.w3.org/2000/svg">
<path d="M23.2855 9.844H22.4V9.8H12.5V14.2H18.715C17.8075 16.763 15.371 18.6 12.5 18.6C8.8535 18.6 5.9 15.6465 5.9 12C5.9 8.3535 8.8535 5.4 12.5 5.4C14.183 5.4 15.712 6.0325 16.878 7.072L19.991 3.959C18.0275 2.1275 15.3985 1 12.5 1C6.4225 1 1.5 5.9225 1.5 12C1.5 18.0775 6.4225 23 12.5 23C18.5775 23 23.5 18.072 23.5 12C23.5 11.263 23.423 10.5425 23.2855 9.844Z" fill="#FBC02D"/>
<path d="M2.77051 6.8795L6.38401 9.5305C7.36301 7.1105 9.72801 5.4 12.5 5.4C14.183 5.4 15.712 6.0325 16.878 7.072L19.991 3.959C18.0275 2.1275 15.3985 1 12.5 1C8.27601 1 4.61301 3.387 2.77051 6.8795Z" fill="#E53935"/>
<path d="M12.5 23C15.3435 23 17.923 21.911 19.8755 20.1455L16.471 17.2635C15.3655 18.0995 13.996 18.6 12.5 18.6C9.63996 18.6 7.20896 16.774 6.29596 14.2275L2.70996 16.994C4.53046 20.558 8.22646 23 12.5 23Z" fill="#4CAF50"/>
<path d="M23.2856 9.8438L23.2746 9.7998H12.4946V14.1998H18.7096C18.2751 15.4318 17.4831 16.4933 16.4601 17.2633L19.8646 20.1453C19.6226 20.3653 23.4891 17.4998 23.4891 11.9998C23.4891 11.2628 23.4121 10.5423 23.2746 9.8438H23.2856Z" fill="#1565C0"/>
</svg>
