<svg width="36" height="36" viewBox="0 0 36 36" fill="none" xmlns="http://www.w3.org/2000/svg">
<path d="M18.0069 9.91465C13.5351 9.91465 9.92803 13.5217 9.92803 17.9936C9.92803 22.4654 13.5351 26.0725 18.0069 26.0725C22.4788 26.0725 26.0858 22.4654 26.0858 17.9936C26.0858 13.5217 22.4788 9.91465 18.0069 9.91465ZM18.0069 23.2459C15.1171 23.2459 12.7546 20.8904 12.7546 17.9936C12.7546 15.0967 15.1101 12.7412 18.0069 12.7412C20.9038 12.7412 23.2593 15.0967 23.2593 17.9936C23.2593 20.8904 20.8968 23.2459 18.0069 23.2459ZM28.3007 9.58418C28.3007 10.6318 27.4569 11.4686 26.4163 11.4686C25.3687 11.4686 24.5319 10.6248 24.5319 9.58418C24.5319 8.54355 25.3757 7.6998 26.4163 7.6998C27.4569 7.6998 28.3007 8.54355 28.3007 9.58418ZM33.6515 11.4967C33.5319 8.97246 32.9554 6.73652 31.1062 4.89434C29.264 3.05215 27.028 2.47559 24.5038 2.34902C21.9022 2.20137 14.1046 2.20137 11.503 2.34902C8.98584 2.46855 6.7499 3.04512 4.90068 4.8873C3.05147 6.72949 2.48193 8.96543 2.35537 11.4896C2.20771 14.0912 2.20771 21.8889 2.35537 24.4904C2.4749 27.0146 3.05147 29.2506 4.90068 31.0928C6.7499 32.935 8.97881 33.5115 11.503 33.6381C14.1046 33.7857 21.9022 33.7857 24.5038 33.6381C27.028 33.5186 29.264 32.942 31.1062 31.0928C32.9483 29.2506 33.5249 27.0146 33.6515 24.4904C33.7991 21.8889 33.7991 14.0982 33.6515 11.4967ZM30.2905 27.2818C29.7421 28.66 28.6804 29.7217 27.2952 30.2771C25.221 31.0998 20.2991 30.91 18.0069 30.91C15.7147 30.91 10.7858 31.0928 8.71865 30.2771C7.34053 29.7287 6.27881 28.667 5.72334 27.2818C4.90068 25.2076 5.09053 20.2857 5.09053 17.9936C5.09053 15.7014 4.90771 10.7725 5.72334 8.70527C6.27178 7.32715 7.3335 6.26543 8.71865 5.70996C10.7929 4.8873 15.7147 5.07715 18.0069 5.07715C20.2991 5.07715 25.228 4.89434 27.2952 5.70996C28.6733 6.2584 29.7351 7.32012 30.2905 8.70527C31.1132 10.7795 30.9233 15.7014 30.9233 17.9936C30.9233 20.2857 31.1132 25.2146 30.2905 27.2818Z" fill="white"/>
</svg>
