<svg width="180" height="33" viewBox="0 0 180 33" fill="none" xmlns="http://www.w3.org/2000/svg">
<g clip-path="url(#clip0_1526_14804)">
<path d="M81.5813 14.389L76.7425 4.01068C76.5892 3.68225 76.2608 3.4633 75.8886 3.4633H73.1517C72.451 3.4633 71.9912 4.20774 72.3196 4.8427L79.2166 18.3301C79.2823 18.4615 79.3261 18.6147 79.3261 18.768V28.0734C79.3261 28.5989 79.7421 29.0149 80.2676 29.0149H82.7636C83.2891 29.0149 83.7051 28.5989 83.7051 28.0734V18.7461C83.7051 18.5928 83.7489 18.4615 83.8146 18.3082L90.7116 4.8208C91.04 4.18584 90.5802 3.44141 89.8795 3.44141H87.1427C86.7704 3.44141 86.442 3.66036 86.2887 3.98878L81.5813 14.389Z" fill="white"/>
<path d="M108.446 14.3866H100.608V7.55533H110.811C111.227 7.55533 111.599 7.27069 111.709 6.85469L112.3 4.64328C112.453 4.05211 112.015 3.46094 111.402 3.46094H97.1485C96.623 3.46094 96.207 3.87695 96.207 4.40243V28.0492C96.207 28.5747 96.623 28.9907 97.1485 28.9907H99.6446C100.17 28.9907 100.586 28.5747 100.586 28.0492V18.4591H107.833C108.249 18.4591 108.622 18.1745 108.731 17.7585L109.322 15.569C109.519 14.9778 109.059 14.3866 108.446 14.3866Z" fill="white"/>
<path d="M122.328 18.4615H129.619C130.035 18.4615 130.408 18.1768 130.517 17.7608L131.108 15.5713C131.261 14.9801 130.824 14.389 130.211 14.389H122.306V7.5358H132.553C132.969 7.5358 133.342 7.25116 133.451 6.83515L134.042 4.62374C134.195 4.03258 133.758 3.44141 133.144 3.44141H118.891C118.365 3.44141 117.949 3.85741 117.949 4.3829V28.0297C117.949 28.5551 118.365 28.9711 118.891 28.9711H122.328H131.502C131.918 28.9711 132.291 28.6865 132.4 28.2705L132.991 26.0591C133.144 25.4679 132.707 24.8768 132.093 24.8768H122.328V18.4615Z" fill="white"/>
<path d="M145.099 18.4615H152.368C152.806 18.4615 153.179 18.1768 153.288 17.7608L153.857 15.5713C154.011 14.9801 153.551 14.389 152.938 14.389H145.099V7.5358H155.28C155.696 7.5358 156.069 7.25116 156.178 6.83515L156.769 4.62374C156.923 4.03258 156.485 3.44141 155.872 3.44141H141.662C141.136 3.44141 140.72 3.85741 140.72 4.3829V28.0297C140.72 28.5551 141.136 28.9711 141.662 28.9711H145.099H154.317C154.755 28.9711 155.127 28.6865 155.237 28.2705L155.806 26.0591C155.959 25.4679 155.499 24.8768 154.886 24.8768H145.099V18.4615Z" fill="white"/>
<path d="M168.198 24.8986V4.3829C168.198 3.85741 167.782 3.44141 167.257 3.44141H164.761C164.235 3.44141 163.819 3.85741 163.819 4.3829V24.8986V28.0516C163.819 28.577 164.235 28.993 164.761 28.993H178.511H179.19L179.978 26.1029C180.131 25.5117 179.693 24.9205 179.058 24.9205H168.198V24.8986Z" fill="white"/>
<path d="M65.6853 3.43986H63.4739C63.1236 3.43986 62.7952 3.63692 62.6419 3.94345L56.3361 16.2704L55.2632 18.3724L47.9284 3.94345C47.7751 3.63692 47.4467 3.41797 47.0963 3.41797H44.9287C44.4251 3.41797 44.0091 3.81208 43.9872 4.31567L42.6297 27.9624C42.6078 28.5098 43.0238 28.9477 43.5712 28.9477H46.6584C47.162 28.9477 47.578 28.5536 47.5999 28.0719L48.4319 14.3655L53.4897 24.284C53.643 24.5906 53.9714 24.7876 54.3217 24.7876H56.2923C56.6426 24.7876 56.9711 24.5906 57.1243 24.284L62.1821 14.3874L63.0141 28.0938C63.036 28.5974 63.452 28.9696 63.9556 28.9696H67.0428C67.5902 28.9696 68.0062 28.5098 67.9843 27.9843L66.6268 4.33757C66.583 3.83398 66.1889 3.43986 65.6853 3.43986Z" fill="white"/>
<path fill-rule="evenodd" clip-rule="evenodd" d="M24.7196 32.0573H6.96266C3.10911 32.0573 0 28.9482 0 25.0946V7.33766C0 3.48411 3.10911 0.375 6.96266 0.375H24.7196C28.5732 0.375 31.6823 3.48411 31.6823 7.33766V25.0946C31.6823 28.9482 28.5732 32.0573 24.7196 32.0573ZM23.5592 25.4016C24.6354 25.4016 25.5078 24.5292 25.5078 23.453C25.5078 22.3767 24.6354 21.5043 23.5592 21.5043C22.483 21.5043 21.6105 22.3767 21.6105 23.453C21.6105 24.5292 22.483 25.4016 23.5592 25.4016ZM22.5301 7.09728C23.3621 7.27244 23.9752 7.95119 24.0628 8.8051L24.9824 18.6579C25.0699 19.7308 24.3036 20.6723 23.2307 20.7817C22.1579 20.8912 21.2164 20.103 21.1069 19.0301L20.7566 15.3299L17.4285 21.2634C17.4066 21.2853 17.3902 21.3127 17.3738 21.3401C17.3574 21.3674 17.341 21.3948 17.3191 21.4167C17.3055 21.4167 17.3004 21.4251 17.2932 21.4366C17.2888 21.4438 17.2836 21.4521 17.2753 21.4605C17.2096 21.5481 17.1439 21.6357 17.0563 21.7013C17.0344 21.7013 17.0125 21.7232 16.9906 21.7451C16.9322 21.8035 16.8739 21.8424 16.8155 21.8814C16.7863 21.9008 16.7571 21.9203 16.7279 21.9422L16.706 21.9641C16.6184 22.0298 16.5089 22.0736 16.3995 22.1173C16.3885 22.1173 16.3721 22.1228 16.3557 22.1283C16.3392 22.1338 16.3228 22.1392 16.3119 22.1392C16.2243 22.1611 16.1367 22.183 16.0272 22.2049H15.9835C15.8959 22.2268 15.8083 22.2268 15.7207 22.2268H15.655H15.5893C15.3704 22.2268 15.1514 22.1611 14.9544 22.0736C14.9377 22.0652 14.9241 22.06 14.9126 22.0556C14.8939 22.0485 14.8803 22.0433 14.8668 22.0298C14.8501 22.0214 14.8365 22.0162 14.825 22.0118C14.8063 22.0047 14.7928 21.9995 14.7792 21.986C14.7683 21.975 14.7518 21.9641 14.7354 21.9531C14.719 21.9422 14.7026 21.9312 14.6916 21.9203C14.6588 21.8984 14.6314 21.8765 14.6041 21.8546C14.5767 21.8327 14.5493 21.8108 14.5165 21.7889L14.3851 21.6575L14.2537 21.5262C14.2318 21.4933 14.2099 21.466 14.1881 21.4386C14.1662 21.4112 14.1443 21.3839 14.1224 21.351C14.1114 21.3401 14.1005 21.3237 14.0895 21.3072C14.0786 21.2908 14.0676 21.2744 14.0567 21.2634L10.5535 15.3517L10.028 23.5405C9.96229 24.5696 9.10838 25.3578 8.1012 25.3578H7.96983C6.89697 25.2921 6.08685 24.3725 6.15253 23.2997L7.09402 8.84889C7.15971 8.01687 7.75088 7.29433 8.58289 7.09728C9.41491 6.90022 10.2688 7.27244 10.7067 7.99498L15.7207 16.4246L20.4282 8.03877C20.8442 7.29433 21.6981 6.92212 22.5301 7.09728Z" fill="white"/>
</g>
<defs>
<clipPath id="clip0_1526_14804">
<rect width="180" height="31.6823" fill="white" transform="translate(0 0.375)"/>
</clipPath>
</defs>
</svg>
