<svg width="180" height="32" viewBox="0 0 180 32" fill="none" xmlns="http://www.w3.org/2000/svg">
<g clip-path="url(#clip0_825_53394)">
<path d="M81.5808 14.1718L76.742 3.79352C76.5887 3.46509 76.2603 3.24614 75.8881 3.24614H73.1512C72.4505 3.24614 71.9907 3.99057 72.3192 4.62553L79.2161 18.1129C79.2818 18.2443 79.3256 18.3976 79.3256 18.5508V27.8563C79.3256 28.3818 79.7416 28.7978 80.2671 28.7978H82.7631C83.2886 28.7978 83.7046 28.3818 83.7046 27.8563V18.529C83.7046 18.3757 83.7484 18.2443 83.8141 18.091L90.7111 4.60364C91.0395 3.96868 90.5797 3.22424 89.8791 3.22424H87.1422C86.7699 3.22424 86.4415 3.44319 86.2883 3.77162L81.5808 14.1718Z" fill="black"/>
<path d="M108.446 14.1719H100.608V7.34061H110.811C111.227 7.34061 111.599 7.05597 111.709 6.63996L112.3 4.42855C112.453 3.83738 112.015 3.24622 111.402 3.24622H97.1485C96.623 3.24622 96.207 3.66222 96.207 4.18771V27.8345C96.207 28.36 96.623 28.776 97.1485 28.776H99.6446C100.17 28.776 100.586 28.36 100.586 27.8345V18.2444H107.833C108.249 18.2444 108.622 17.9598 108.731 17.5437L109.322 15.3542C109.519 14.7631 109.059 14.1719 108.446 14.1719Z" fill="black"/>
<path d="M122.328 18.2443H129.619C130.035 18.2443 130.408 17.9597 130.517 17.5437L131.108 15.3542C131.261 14.763 130.824 14.1718 130.211 14.1718H122.306V7.31864H132.553C132.969 7.31864 133.342 7.034 133.451 6.61799L134.042 4.40658C134.195 3.81541 133.758 3.22424 133.144 3.22424H118.891C118.365 3.22424 117.949 3.64025 117.949 4.16573V27.8125C117.949 28.338 118.365 28.754 118.891 28.754H122.328H131.502C131.918 28.754 132.291 28.4693 132.4 28.0533L132.991 25.8419C133.144 25.2508 132.707 24.6596 132.093 24.6596H122.328V18.2443Z" fill="black"/>
<path d="M145.099 18.2443H152.368C152.806 18.2443 153.178 17.9597 153.288 17.5437L153.857 15.3542C154.01 14.763 153.55 14.1718 152.937 14.1718H145.099V7.31864H155.28C155.696 7.31864 156.068 7.034 156.178 6.61799L156.769 4.40658C156.922 3.81541 156.484 3.22424 155.871 3.22424H141.661C141.136 3.22424 140.72 3.64025 140.72 4.16573V27.8125C140.72 28.338 141.136 28.754 141.661 28.754H145.099H154.317C154.755 28.754 155.127 28.4693 155.236 28.0533L155.805 25.8419C155.959 25.2508 155.499 24.6596 154.886 24.6596H145.099V18.2443Z" fill="black"/>
<path d="M168.198 24.6815V4.16573C168.198 3.64025 167.782 3.22424 167.257 3.22424H164.761C164.235 3.22424 163.819 3.64025 163.819 4.16573V24.6815V27.8344C163.819 28.3599 164.235 28.7759 164.761 28.7759H178.511H179.19L179.978 25.8857C180.131 25.2945 179.693 24.7034 179.058 24.7034H168.198V24.6815Z" fill="black"/>
<path d="M65.6853 3.22429H63.4739C63.1236 3.22429 62.7952 3.42134 62.6419 3.72788L56.3361 16.0548L55.2632 18.1568L47.9284 3.72788C47.7751 3.42134 47.4467 3.20239 47.0963 3.20239H44.9287C44.4251 3.20239 44.0091 3.59651 43.9872 4.10009L42.6297 27.7469C42.6078 28.2942 43.0238 28.7321 43.5712 28.7321H46.6584C47.162 28.7321 47.578 28.338 47.5999 27.8563L48.4319 14.15L53.4897 24.0685C53.643 24.375 53.9714 24.5721 54.3217 24.5721H56.2923C56.6426 24.5721 56.9711 24.375 57.1243 24.0685L62.1821 14.1719L63.0141 27.8782C63.036 28.3818 63.452 28.754 63.9556 28.754H67.0428C67.5902 28.754 68.0062 28.2942 67.9843 27.7687L66.6268 4.12199C66.583 3.6184 66.1889 3.22429 65.6853 3.22429Z" fill="black"/>
<path d="M24.7196 31.8412H6.96266C3.10911 31.8412 0 28.7321 0 24.8786V7.12159C0 3.26805 3.10911 0.158936 6.96266 0.158936H24.7196C28.5732 0.158936 31.6823 3.26805 31.6823 7.12159V24.8786C31.6823 28.7321 28.5732 31.8412 24.7196 31.8412Z" fill="#193563"/>
<path d="M23.559 25.1851C24.6352 25.1851 25.5077 24.3126 25.5077 23.2364C25.5077 22.1602 24.6352 21.2877 23.559 21.2877C22.4828 21.2877 21.6104 22.1602 21.6104 23.2364C21.6104 24.3126 22.4828 25.1851 23.559 25.1851Z" fill="#FBC100"/>
<path d="M24.0624 8.58855C23.9748 7.73463 23.3617 7.05589 22.5297 6.88072C21.6977 6.70556 20.8438 7.07778 20.4278 7.82222L15.7203 16.2081L10.7064 7.77842C10.2685 7.05588 9.41454 6.68367 8.58253 6.88072C7.75051 7.07778 7.15934 7.80032 7.09366 8.63234L6.15217 23.0831C6.08648 24.156 6.8966 25.0756 7.96946 25.1413C8.01325 25.1413 8.05704 25.1413 8.10083 25.1413C9.10801 25.1413 9.96192 24.3531 10.0276 23.324L10.5531 15.1352L14.0563 21.0469C14.0782 21.0688 14.1001 21.1126 14.122 21.1345C14.1658 21.2002 14.2096 21.2439 14.2534 21.3096C14.2972 21.3534 14.341 21.3972 14.3847 21.441C14.4285 21.4848 14.4723 21.5286 14.5161 21.5724C14.5818 21.6162 14.6256 21.6599 14.6913 21.7037C14.7132 21.7256 14.757 21.7475 14.7789 21.7694C14.8007 21.7913 14.8226 21.7913 14.8664 21.8132C14.8883 21.8351 14.9102 21.8351 14.954 21.857C15.1511 21.9446 15.37 22.0103 15.589 22.0103C15.6109 22.0103 15.6328 22.0103 15.6547 22.0103C15.6766 22.0103 15.6985 22.0103 15.7203 22.0103C15.8079 22.0103 15.8955 22.0103 15.9831 21.9884C16.005 21.9884 16.005 21.9884 16.0269 21.9884C16.1364 21.9665 16.2239 21.9446 16.3115 21.9227C16.3334 21.9227 16.3772 21.9008 16.3991 21.9008C16.5086 21.857 16.618 21.8132 16.7056 21.7475L16.7275 21.7256C16.8151 21.6599 16.9027 21.6162 16.9903 21.5286C17.0122 21.5067 17.0341 21.4848 17.0559 21.4848C17.1435 21.4191 17.2092 21.3315 17.2749 21.2439C17.2968 21.222 17.2968 21.2002 17.3187 21.2002C17.3625 21.1564 17.3844 21.0907 17.4282 21.0469L20.7562 15.1133L21.1066 18.8136C21.216 19.8864 22.1575 20.6747 23.2304 20.5652C24.3032 20.4557 25.0696 19.5142 24.982 18.4414L24.0624 8.58855Z" fill="white"/>
</g>
<defs>
<clipPath id="clip0_825_53394">
<rect width="180" height="31.6823" fill="white" transform="translate(0 0.158936)"/>
</clipPath>
</defs>
</svg>
