<svg width="36" height="36" viewBox="0 0 36 36" fill="none" xmlns="http://www.w3.org/2000/svg">
<g clip-path="url(#clip0_825_53402)">
<path d="M22.733 19.3333C23.733 19.3333 24.613 18.7866 25.0663 17.96L29.8397 9.30663C30.333 8.42663 29.693 7.33329 28.6797 7.33329H8.94634L7.69301 4.66663H3.33301V7.33329H5.99967L10.7997 17.4533L8.99967 20.7066C8.02634 22.4933 9.30634 24.6666 11.333 24.6666H27.333V22H11.333L12.7997 19.3333H22.733ZM10.213 9.99996H26.413L22.733 16.6666H13.373L10.213 9.99996ZM11.333 26C9.86634 26 8.67967 27.2 8.67967 28.6666C8.67967 30.1333 9.86634 31.3333 11.333 31.3333C12.7997 31.3333 13.9997 30.1333 13.9997 28.6666C13.9997 27.2 12.7997 26 11.333 26ZM24.6663 26C23.1997 26 22.013 27.2 22.013 28.6666C22.013 30.1333 23.1997 31.3333 24.6663 31.3333C26.133 31.3333 27.333 30.1333 27.333 28.6666C27.333 27.2 26.133 26 24.6663 26Z" fill="#9E9E9E"/>
</g>
<defs>
<clipPath id="clip0_825_53402">
<rect width="32" height="32" fill="white" transform="translate(2 2)"/>
</clipPath>
</defs>
</svg>
