<svg width="96" height="96" viewBox="0 0 96 96" fill="none" xmlns="http://www.w3.org/2000/svg">
<g clip-path="url(#clip0_1639_76402)">
<path d="M72 64.32C68.96 64.32 66.24 65.52 64.16 67.4L35.64 50.8C35.84 49.88 36 48.96 36 48C36 47.04 35.84 46.12 35.64 45.2L63.84 28.76C66 30.76 68.84 32 72 32C78.64 32 84 26.64 84 20C84 13.36 78.64 8 72 8C65.36 8 60 13.36 60 20C60 20.96 60.16 21.88 60.36 22.8L32.16 39.24C30 37.24 27.16 36 24 36C17.36 36 12 41.36 12 48C12 54.64 17.36 60 24 60C27.16 60 30 58.76 32.16 56.76L60.64 73.4C60.44 74.24 60.32 75.12 60.32 76C60.32 82.44 65.56 87.68 72 87.68C78.44 87.68 83.68 82.44 83.68 76C83.68 69.56 78.44 64.32 72 64.32ZM72 16C74.2 16 76 17.8 76 20C76 22.2 74.2 24 72 24C69.8 24 68 22.2 68 20C68 17.8 69.8 16 72 16ZM24 52C21.8 52 20 50.2 20 48C20 45.8 21.8 44 24 44C26.2 44 28 45.8 28 48C28 50.2 26.2 52 24 52ZM72 80.08C69.8 80.08 68 78.28 68 76.08C68 73.88 69.8 72.08 72 72.08C74.2 72.08 76 73.88 76 76.08C76 78.28 74.2 80.08 72 80.08Z" fill="black"/>
</g>
<defs>
<clipPath id="clip0_1639_76402">
<rect width="96" height="96" fill="white"/>
</clipPath>
</defs>
</svg>
